<svg xmlns="http://www.w3.org/2000/svg" viewBox="0 0 826.03 834.18"><style>.st1{fill:#f85446}.st2{opacity:0}</style><g id="Calque_1"><path d="M196.25 509.91l-45.79 107.7c-.99 2.69-2.51 4.77-4.56 6.25-2.05 1.48-4.28 2.23-6.68 2.23-3.82 0-6.65-1.06-8.48-3.18-1.84-2.12-2.76-4.73-2.76-7.84 0-1.27.21-2.61.64-4.03l52.79-126.78c1.13-2.83 2.86-5.02 5.19-6.57 2.33-1.55 4.84-2.19 7.53-1.91 2.54 0 4.91.74 7.1 2.23 2.19 1.48 3.78 3.57 4.77 6.25l52.15 124.23c.71 1.84 1.06 3.53 1.06 5.09 0 3.82-1.24 6.86-3.71 9.12-2.47 2.26-5.19 3.39-8.16 3.39-2.54 0-4.84-.78-6.89-2.33s-3.64-3.67-4.77-6.36L190.1 511.18l6.15-1.27zm-39.22 81.83l11.66-24.38h57.24l4.03 24.38h-72.93zm225.56-115.33c3.67 0 6.64 1.24 8.9 3.71 2.26 2.47 3.39 5.55 3.39 9.22v76.74c0 11.73-2.51 22.12-7.53 31.16-5.02 9.05-11.91 16.11-20.67 21.2-8.76 5.09-18.94 7.63-30.53 7.63s-21.8-2.54-30.63-7.63c-8.83-5.09-15.76-12.15-20.78-21.2-5.02-9.04-7.53-19.43-7.53-31.16v-76.74c0-3.67 1.27-6.75 3.82-9.22 2.54-2.47 5.79-3.71 9.75-3.71 3.25 0 6.18 1.24 8.8 3.71 2.61 2.47 3.92 5.55 3.92 9.22v76.74c0 7.07 1.52 13.18 4.56 18.34 3.04 5.16 7.07 9.15 12.08 11.98 5.02 2.83 10.35 4.24 16.01 4.24 6.08 0 11.73-1.41 16.96-4.24s9.47-6.82 12.72-11.98 4.88-11.27 4.88-18.34v-76.74c0-3.67 1.06-6.75 3.18-9.22 2.13-2.47 5.03-3.71 8.7-3.71zm47.49 24.6c-3.68 0-6.75-1.13-9.22-3.39-2.47-2.26-3.71-5.23-3.71-8.9s1.24-6.6 3.71-8.8c2.47-2.19 5.54-3.29 9.22-3.29h94.13c3.67 0 6.75 1.13 9.22 3.39 2.47 2.26 3.71 5.23 3.71 8.9 0 3.68-1.24 6.61-3.71 8.8-2.47 2.19-5.55 3.29-9.22 3.29h-94.13zm46.85 124.02c-3.96 0-7.21-1.24-9.75-3.71-2.54-2.47-3.82-5.54-3.82-9.22V489.13h27.56v122.96c0 3.68-1.31 6.75-3.92 9.22-2.62 2.48-5.97 3.72-10.07 3.72zm219-74.2c0 10.6-1.77 20.5-5.3 29.68-3.53 9.19-8.52 17.28-14.95 24.27-6.43 7-14.06 12.47-22.9 16.43-8.83 3.96-18.48 5.94-28.94 5.94s-20.07-1.98-28.83-5.94c-8.76-3.96-16.36-9.43-22.79-16.43s-11.42-15.08-14.95-24.27c-3.53-9.19-5.3-19.08-5.3-29.68 0-10.6 1.77-20.49 5.3-29.68 3.53-9.19 8.51-17.28 14.95-24.27 6.43-7 14.02-12.47 22.79-16.43 8.76-3.96 18.37-5.94 28.83-5.94 10.46 0 20.1 1.98 28.94 5.94 8.83 3.96 16.46 9.43 22.9 16.43 6.43 7 11.41 15.09 14.95 24.27 3.53 9.18 5.3 19.08 5.3 29.68zm-27.56 0c0-9.47-1.91-18.05-5.72-25.76-3.82-7.7-9.05-13.81-15.69-18.34-6.65-4.52-14.35-6.78-23.11-6.78s-16.47 2.26-23.11 6.78c-6.64 4.52-11.84 10.6-15.58 18.23-3.75 7.63-5.62 16.25-5.62 25.86 0 9.47 1.87 18.06 5.62 25.76 3.74 7.71 8.94 13.82 15.58 18.34 6.64 4.52 14.34 6.78 23.11 6.78 8.76 0 16.46-2.26 23.11-6.78 6.64-4.52 11.87-10.63 15.69-18.34 3.81-7.7 5.72-16.28 5.72-25.75zM166.45 676.98c1.49 0 2.67.46 3.53 1.38.86.92 1.29 2.06 1.29 3.44v110.08c0 1.72-.55 3.07-1.63 4.04-1.09.98-2.32 1.46-3.7 1.46-.69 0-1.44-.14-2.24-.43-.8-.29-1.44-.71-1.89-1.29L85.1 692.28l2.92-1.55v102c0 1.26-.46 2.35-1.38 3.27-.92.92-2.06 1.38-3.44 1.38-1.49 0-2.67-.46-3.53-1.38-.86-.92-1.29-2-1.29-3.27v-110.6c0-1.72.52-3.01 1.55-3.87 1.03-.86 2.18-1.29 3.44-1.29.69 0 1.43.15 2.24.43.8.29 1.43.77 1.89 1.46l75.85 102.17-1.72 3.1V681.79c0-1.38.49-2.52 1.46-3.44.98-.91 2.1-1.37 3.36-1.37zm141.04 60.2c0 9.06-1.41 17.35-4.21 24.85-2.81 7.51-6.79 14.05-11.95 19.61-5.16 5.56-11.27 9.86-18.32 12.9-7.05 3.04-14.76 4.56-23.13 4.56s-16.08-1.52-23.13-4.56c-7.05-3.04-13.16-7.34-18.32-12.9-5.16-5.56-9.15-12.1-11.95-19.61-2.81-7.51-4.21-15.79-4.21-24.85 0-9.06 1.4-17.34 4.21-24.85 2.81-7.51 6.79-14.04 11.95-19.61 5.16-5.56 11.27-9.86 18.32-12.9 7.05-3.04 14.76-4.56 23.13-4.56s16.08 1.52 23.13 4.56c7.05 3.04 13.16 7.34 18.32 12.9 5.16 5.56 9.14 12.1 11.95 19.61 2.81 7.5 4.21 15.79 4.21 24.85zm-11 0c0-10.2-1.98-19.18-5.93-26.92-3.96-7.74-9.43-13.79-16.43-18.15-7-4.36-15.08-6.54-24.25-6.54-9.06 0-17.11 2.18-24.17 6.54-7.05 4.36-12.56 10.41-16.51 18.15-3.96 7.74-5.93 16.71-5.93 26.92s1.98 19.18 5.93 26.92c3.96 7.74 9.46 13.79 16.51 18.15 7.05 4.36 15.11 6.54 24.17 6.54 9.17 0 17.26-2.18 24.25-6.54 6.99-4.36 12.47-10.41 16.43-18.15 3.95-7.75 5.93-16.72 5.93-26.92zm37.15-60.2c.8 0 1.63.17 2.49.52.86.34 1.58.92 2.15 1.72l47.47 71.21-4.64-.17 47.64-71.04c1.26-1.72 2.81-2.46 4.64-2.24 1.38 0 2.55.49 3.53 1.46.97.98 1.46 2.21 1.46 3.7v110.08c0 1.38-.52 2.58-1.55 3.61-1.03 1.03-2.29 1.55-3.78 1.55-1.61 0-2.92-.52-3.96-1.55-1.03-1.03-1.55-2.24-1.55-3.61v-99.59l3.1.34-43.52 65.88c-.34.69-.86 1.23-1.55 1.63-.69.4-1.49.54-2.41.43-.8.12-1.58-.03-2.32-.43-.75-.4-1.35-.95-1.81-1.63l-43.69-66.56 3.27-2.24v102.17c0 1.38-.49 2.58-1.46 3.61-.98 1.03-2.21 1.55-3.7 1.55-1.49 0-2.7-.52-3.61-1.55a5.26 5.26 0 01-1.38-3.61V682.14c0-1.38.49-2.58 1.46-3.61.99-1.04 2.22-1.55 3.72-1.55zm138.8 0h63.12c1.38 0 2.58.49 3.61 1.46 1.03.98 1.55 2.21 1.55 3.7 0 1.49-.52 2.7-1.55 3.61a5.26 5.26 0 01-3.61 1.38H476.4l1.72-2.92v48.33l-1.89-2.24h51.6c1.38 0 2.58.52 3.61 1.55 1.03 1.03 1.55 2.24 1.55 3.61 0 1.49-.52 2.7-1.55 3.61a5.26 5.26 0 01-3.61 1.38h-51.26l1.55-1.72v49.54l-.86-1.03h58.31c1.38 0 2.58.52 3.61 1.55 1.03 1.03 1.55 2.24 1.55 3.61 0 1.49-.52 2.7-1.55 3.61a5.26 5.26 0 01-3.61 1.38h-63.12c-1.38 0-2.58-.52-3.61-1.55s-1.55-2.24-1.55-3.61V682.14c0-1.38.52-2.58 1.55-3.61 1.02-1.04 2.22-1.55 3.6-1.55zm177.16 0c1.49 0 2.67.46 3.53 1.38.86.92 1.29 2.06 1.29 3.44v110.08c0 1.72-.54 3.07-1.63 4.04-1.09.98-2.32 1.46-3.7 1.46-.69 0-1.44-.14-2.24-.43-.8-.29-1.43-.71-1.89-1.29l-76.71-103.37 2.92-1.55v102c0 1.26-.46 2.35-1.38 3.27-.92.92-2.06 1.38-3.44 1.38-1.49 0-2.67-.46-3.53-1.38-.86-.92-1.29-2-1.29-3.27v-110.6c0-1.72.52-3.01 1.55-3.87 1.03-.86 2.18-1.29 3.44-1.29.69 0 1.43.15 2.24.43.8.29 1.43.77 1.89 1.46l75.85 102.17-1.72 3.1V681.79c0-1.38.49-2.52 1.46-3.44.98-.91 2.09-1.37 3.36-1.37zm66.91 122.12c-8.72.11-16.28-1.26-22.7-4.13-6.42-2.86-12.56-7.17-18.4-12.9a5.982 5.982 0 01-1.46-1.72c-.4-.69-.6-1.49-.6-2.41 0-1.38.54-2.64 1.63-3.78 1.09-1.15 2.32-1.72 3.7-1.72 1.38 0 2.64.58 3.78 1.72 4.47 4.82 9.55 8.49 15.22 11.01 5.68 2.52 11.78 3.78 18.32 3.78 5.5 0 10.41-.86 14.71-2.58 4.3-1.72 7.71-4.18 10.23-7.4 2.52-3.21 3.78-6.94 3.78-11.18 0-5.27-1.43-9.55-4.3-12.81-2.87-3.27-6.65-5.96-11.35-8.08-4.7-2.12-9.92-4.04-15.65-5.76-4.7-1.38-9.18-2.95-13.42-4.73-4.24-1.78-8.03-3.96-11.35-6.54a26.498 26.498 0 01-7.74-9.55c-1.83-3.78-2.75-8.37-2.75-13.76 0-6.08 1.6-11.46 4.82-16.17 3.21-4.7 7.77-8.4 13.67-11.09 5.9-2.69 12.75-4.04 20.55-4.04 6.76 0 13.27 1.15 19.52 3.44s11.21 5.68 14.88 10.15c1.72 1.84 2.58 3.5 2.58 4.99 0 1.15-.58 2.29-1.72 3.44-1.15 1.15-2.41 1.72-3.78 1.72-1.15 0-2.12-.4-2.92-1.2-1.95-2.41-4.42-4.56-7.4-6.45-2.98-1.89-6.28-3.35-9.89-4.39-3.61-1.03-7.37-1.55-11.27-1.55-5.39 0-10.23.83-14.53 2.49-4.3 1.66-7.68 4.04-10.15 7.14-2.47 3.1-3.7 6.82-3.7 11.18 0 4.82 1.38 8.77 4.13 11.87s6.36 5.65 10.84 7.65c4.47 2.01 9.23 3.87 14.28 5.59 4.93 1.38 9.66 2.95 14.19 4.73 4.53 1.78 8.54 3.99 12.04 6.62 3.5 2.64 6.25 5.96 8.26 9.98 2.01 4.01 3.01 9.06 3.01 15.14 0 5.85-1.66 11.12-4.99 15.82-3.33 4.7-7.89 8.43-13.67 11.18-5.81 2.75-12.61 4.18-20.4 4.3z" fill="#171717"/><path class="st1" d="M411.87 378.16c-80.03 0-144.92-64.89-144.92-144.92 0-80.03 64.89-144.92 144.92-144.92 80.03 0 144.92 64.89 144.92 144.92 0 80.03-64.89 144.92-144.92 144.92zm0-305.94c-88.93 0-161.02 72.09-161.02 161.02s72.09 161.02 161.02 161.02 161.02-72.1 161.02-161.02S500.8 72.22 411.87 72.22z"/><path class="st2" d="M341.86 243.56c0-6.96 5.64-12.6 12.6-12.6s12.6 5.64 12.6 12.6L354.45 263l-12.59-19.44zm39.25-151.93h-.03.03zm49.47-2.07c.22.03.45.05.68.08-.23-.02-.46-.05-.68-.08zm-7.71-.78c.75.06 1.5.1 2.24.17-.74-.07-1.49-.11-2.24-.17zm-11-.46zm-8.82.29c.35-.02.7-.06 1.05-.08-.35.02-.7.06-1.05.08zm-7.22.61l.48-.06c-.16.02-.32.05-.48.06z"/><path transform="rotate(-45.001 437.534 205.977)" class="st2" d="M403.04 130.63h68.99v150.68h-68.99z"/><circle class="st2" cx="354.46" cy="242.48" r="5.84"/><path class="st1" d="M444.82 92.13h-.02.02zm66.98 246zm-203.25-3.3zm243.14-63.49v-.01.01zm2.35-66.22l-.01-.03.01.04zm-1.67-7.44h.01zm1.11 66.35c-.01.03-.01.05-.02.08 0-.03.01-.06.02-.08zm-246.5-130.72v-.01zm133 242.1h.03-.03zm-58.9-283.78c-.03.01-.05.01-.07.02.02-.01.04-.02.07-.02zm-26.62 156.68a5.84 5.84 0 01-5.84-5.84c0-3.22 2.61-5.83 5.84-5.83a5.83 5.83 0 015.83 5.83c0 3.23-2.62 5.84-5.83 5.84zm-.01-17.35c-6.95 0-12.6 5.64-12.6 12.6l12.6 19.44 12.6-19.44c0-6.95-5.64-12.6-12.6-12.6zm70.66-142.01zm-6.43-.46c1.41.07 2.8.18 4.19.28-1.4-.09-2.79-.21-4.19-.28zm-22.37.67c2.23-.24 4.49-.41 6.75-.55-2.27.14-4.52.32-6.75.55zm-15.2 2.47c4.82-1.04 9.74-1.85 14.72-2.4-4.99.54-9.9 1.35-14.72 2.4zm22.99-3.1c2.57-.14 5.16-.21 7.77-.21-2.61 0-5.2.08-7.77.21zm147.59 182.8zM444.8 92.13c-4.44-1.03-8.96-1.86-13.55-2.48 2.01.27 4.01.58 6 .93 2.54.45 5.06.97 7.55 1.55zm107.58 105.55c.62 2.44 1.16 4.91 1.66 7.41-.5-2.49-1.05-4.96-1.66-7.41z"/><path transform="rotate(-45.001 437.794 205.639)" class="st2" d="M408.03 135.12h59.53v141.02h-59.53z"/><path class="st1" d="M359.18 300.46l61.28 61.28c6.79-.45 13.43-1.42 19.89-2.89l-69.78-69.78-11.39 11.39zm-3.68-135.03l-28.8-28.8c-4.03 3.56-7.83 7.36-11.39 11.38l28.8 28.8 11.39-11.38zm116.05 128.93l-11.38-11.39 6.44-6.44-99.72-99.71-11.39 11.39 46.58 46.58 5.75-5.75 11.38 11.39-5.75 5.74 83.62 83.62c4.03-3.56 7.83-7.36 11.38-11.39l-30.48-30.47-6.43 6.43zm-62.56-182.41l-7.11-7.11a129.4 129.4 0 00-19.72 3.06l15.44 15.43 11.39-11.38z"/><path transform="rotate(-45.004 464.494 178.884)" class="st1" d="M456.47 108.38h16.1v141.03h-16.1z"/><path class="st1" d="M531.47 234.44l-11.39 11.39 17.11 17.11c1.51-6.4 2.54-12.98 3.06-19.71l-8.78-8.79zm-177.58 60.74l11.39-11.39 5.29 5.29 42.9-42.9-11.39-11.38-85.32 85.32c3.62 3.96 7.51 7.69 11.6 11.17l30.82-30.82-5.29-5.29z"/><path transform="rotate(-45.001 362.222 292.131)" class="st1" d="M354.18 288.39h16.11v7.48h-16.11z"/><path transform="rotate(-44.992 410.643 237.612)" class="st1" d="M406.58 229.56h8.13v16.1h-8.13z"/><path transform="rotate(-44.992 493.345 261.192)" class="st1" d="M463.58 253.13h59.53v16.1h-59.53z"/><path class="st1" d="M531.47 234.44l8.96-8.96c-.41-6.82-1.35-13.5-2.78-20l-17.56 17.56 11.38 11.4z"/><path transform="rotate(-44.992 469.081 285.463)" class="st1" d="M464.53 277.4h9.11v16.1h-9.11z"/><path transform="rotate(-44.992 520.092 234.452)" class="st1" d="M512.04 226.39h16.11v16.1h-16.11z"/><path class="st1" d="M291.84 229.1c3.15-3.15 8.24-3.15 11.38 0 3.14 3.15 3.15 8.24 0 11.38-.39.39-.81.73-1.25 1.02l.12.12 53.41-53.41-11.39-11.39-52.27 52.28zm-1.14 1.13l.12.12c.29-.44.63-.86 1.02-1.25l-1.14 1.13z"/><path transform="rotate(-45.001 382.242 150.086)" class="st1" d="M352.48 142.03h59.53v16.1h-59.53z"/><path class="st1" d="M420.37 123.34l16.47-16.47c-6.64-1.31-13.48-2.09-20.44-2.33l-7.42 7.41 11.39 11.39z"/><path transform="rotate(-45.001 355.502 176.829)" class="st1" d="M347.45 168.77h16.1v16.1h-16.1z"/><path transform="rotate(-44.996 408.964 123.34)" class="st1" d="M400.94 115.3h16.1v16.1h-16.1z"/><path class="st1" d="M291.84 240.48c2.75 2.75 7.01 3.09 10.13 1.02l-11.16-11.15c-2.06 3.13-1.72 7.38 1.03 10.13zm11.39-11.38c-3.15-3.15-8.24-3.15-11.38 0-.39.39-.73.81-1.02 1.25l11.16 11.15c.44-.29.86-.63 1.25-1.02 3.13-3.15 3.13-8.24-.01-11.38z"/></g></svg>