<svg version="1.1" id="Calque_1" xmlns="http://www.w3.org/2000/svg" xmlns:xlink="http://www.w3.org/1999/xlink" x="0" y="0" viewBox="0 0 743 254" xml:space="preserve"><style>.st0{fill:#fff}.st1{fill:#65b084}.st3{clip-path:url(#SVGID_2_)}.st5{fill:#358756}</style><path class="st0" d="M188.6 170.87V72.3h12.49v87.46h54.97v11.11H188.6zm109.81 1.39c-5.46 0-10.41-.99-14.85-2.96-4.44-1.97-8.28-4.68-11.52-8.13-3.24-3.45-5.74-7.42-7.5-11.92-1.76-4.5-2.64-9.23-2.64-14.19 0-5.05.88-9.83 2.64-14.33 1.76-4.5 4.26-8.47 7.5-11.92 3.24-3.44 7.1-6.15 11.59-8.13 4.49-1.97 9.42-2.96 14.78-2.96 5.46 0 10.41.99 14.85 2.96 4.44 1.98 8.31 4.69 11.59 8.13 3.28 3.44 5.81 7.42 7.57 11.92 1.76 4.5 2.64 9.28 2.64 14.33 0 4.96-.88 9.69-2.64 14.19-1.76 4.5-4.26 8.47-7.5 11.92-3.24 3.44-7.1 6.16-11.59 8.13-4.49 1.97-9.46 2.96-14.92 2.96zm-24.02-37.07c0 4.95 1.09 9.44 3.26 13.47 2.17 4.03 5.07 7.21 8.68 9.55 3.61 2.34 7.63 3.5 12.08 3.5s8.49-1.19 12.15-3.57c3.65-2.38 6.57-5.61 8.75-9.69 2.17-4.08 3.26-8.59 3.26-13.54 0-4.95-1.09-9.43-3.26-13.46-2.17-4.03-5.09-7.24-8.75-9.62-3.66-2.38-7.71-3.57-12.15-3.57s-8.47 1.21-12.08 3.64c-3.61 2.43-6.5 5.65-8.68 9.68-2.17 4.04-3.26 8.57-3.26 13.61zm107.59 37.07c-5.46 0-10.44-.99-14.92-2.96-4.49-1.97-8.38-4.71-11.66-8.2-3.29-3.49-5.83-7.49-7.63-11.99s-2.71-9.28-2.71-14.33c0-6.8 1.53-13 4.58-18.6 3.05-5.61 7.36-10.08 12.91-13.44s11.98-5.03 19.3-5.03c7.13 0 13.35 1.6 18.67 4.79 5.32 3.19 9.28 7.47 11.87 12.84l-11.94 3.75c-1.85-3.42-4.44-6.08-7.77-7.98-3.33-1.9-7.04-2.85-11.11-2.85-4.44 0-8.49 1.14-12.15 3.44-3.66 2.29-6.55 5.43-8.68 9.41-2.13 3.98-3.19 8.54-3.19 13.67 0 5.04 1.09 9.6 3.26 13.67 2.17 4.08 5.09 7.3 8.75 9.69 3.65 2.38 7.7 3.57 12.15 3.57 2.87 0 5.62-.51 8.26-1.53 2.64-1.02 4.95-2.38 6.94-4.09 1.99-1.71 3.35-3.59 4.1-5.62l11.94 3.61c-1.48 3.52-3.73 6.64-6.73 9.37-3.01 2.73-6.57 4.88-10.69 6.46-4.13 1.56-8.64 2.35-13.55 2.35zm75.8 0c-5.46 0-10.41-.99-14.85-2.96-4.44-1.97-8.28-4.68-11.52-8.13-3.24-3.45-5.74-7.42-7.5-11.92-1.76-4.5-2.64-9.23-2.64-14.19 0-5.05.88-9.83 2.64-14.33 1.76-4.5 4.26-8.47 7.5-11.92 3.24-3.44 7.1-6.15 11.59-8.13 4.49-1.97 9.42-2.96 14.78-2.96 5.46 0 10.41.99 14.85 2.96 4.44 1.98 8.31 4.69 11.59 8.13 3.28 3.44 5.81 7.42 7.57 11.92 1.76 4.5 2.64 9.28 2.64 14.33 0 4.96-.88 9.69-2.64 14.19-1.76 4.5-4.26 8.47-7.5 11.92-3.24 3.44-7.1 6.16-11.59 8.13-4.49 1.97-9.46 2.96-14.92 2.96zm-24.02-37.07c0 4.95 1.09 9.44 3.26 13.47 2.17 4.03 5.07 7.21 8.68 9.55 3.61 2.34 7.63 3.5 12.08 3.5s8.49-1.19 12.15-3.57c3.65-2.38 6.57-5.61 8.75-9.69 2.17-4.08 3.26-8.59 3.26-13.54 0-4.95-1.09-9.43-3.26-13.46-2.17-4.03-5.09-7.24-8.75-9.62-3.66-2.38-7.71-3.57-12.15-3.57s-8.47 1.21-12.08 3.64c-3.61 2.43-6.5 5.65-8.68 9.68-2.17 4.04-3.26 8.57-3.26 13.61z"/><path class="st1" d="M509.7 170.87V72.3h19.16v46.85l41.37-46.99h21.1l-37.76 43.93 40.12 54.77h-21.66l-30.54-42.54-12.63 13.07v29.47H509.7zm96.62-83.02V69.53h18.46v18.33h-18.46zm0 83.02V98.12h18.46v72.74h-18.46zm84.54-3.61c-1.67.74-3.59 1.5-5.76 2.29-2.18.79-4.54 1.43-7.08 1.94-2.55.51-5.12.76-7.71.76-3.52 0-6.71-.6-9.58-1.79s-5.16-3.09-6.87-5.71c-1.71-2.61-2.57-6.03-2.57-10.24v-41.54h-9.44V98.82h9.44v-23.6h18.74v23.6h15.27v14.16h-15.27v35.21c.09 2.47.79 4.27 2.08 5.41 1.29 1.14 2.96 1.71 5 1.71 1.85 0 3.7-.35 5.55-1.04 1.85-.69 3.38-1.32 4.58-1.88l3.62 14.87z"/><path class="st0" d="M79.23 87.69h30.28v33.24H79.23z"/><path class="st0" d="M107.54 89.91H81.2a3.45 3.45 0 01-3.45-3.45V80.8c0-1.9 1.54-3.45 3.45-3.45h26.34c1.9 0 3.45 1.54 3.45 3.45v5.66c0 1.9-1.55 3.45-3.45 3.45z"/><circle class="st1" cx="78.34" cy="49.62" r="8.5"/><path class="st0" d="M76 51c1.1 2.81 5.1 4.18 3 5s-5.46-.82-6.56-3.63S71.9 45.82 74 45s.9 3.19 2 6z"/><circle class="st1" cx="94.45" cy="63.94" r="6.71"/><path class="st0" d="M92.15 65.3c.86 2.19 3.84 3.31 2.3 3.92-1.54.6-4.05-.72-4.91-2.91-.86-2.19-.5-5.08 1.04-5.68 1.54-.61.71 2.47 1.57 4.67z"/><defs><path id="SVGID_3_" d="M144.38 186.47l-12.14-28.49c6.36-15.05 3.42-33.1-8.84-45.37-16.15-16.15-42.34-16.15-58.49 0C52.73 124.79 49.82 143.02 56 158l-12.38 28.47c-.84 1.97-.83 4.22.03 6.17.85 1.96 2.5 3.5 4.51 4.22l43.2 15.55c.85.31 1.75.46 2.64.46s1.79-.15 2.64-.46l43.2-15.55a7.836 7.836 0 004.51-4.22c.86-1.95.87-4.2.03-6.17z"/></defs><clipPath id="SVGID_2_"><use xlink:href="#SVGID_3_" overflow="visible"/></clipPath><g class="st3"><path class="st1" d="M125.13 159.72H62.87l-15.14 35.51a3.32 3.32 0 001.93 4.43l43.2 15.55c.73.26 1.52.26 2.25 0l43.2-15.55a3.32 3.32 0 001.93-4.43l-15.11-35.51z" opacity=".6"/><path class="st1" d="M125.13 152.72H62.87l-15.14 35.51a3.32 3.32 0 001.93 4.43l43.2 15.55c.73.26 1.52.26 2.25 0l43.2-15.55a3.32 3.32 0 001.93-4.43l-15.11-35.51z"/></g><g class="st3"><circle class="st5" cx="94.37" cy="148.61" r="42.39"/><circle class="st0" cx="94.37" cy="141.61" r="42.39"/></g><g class="st3"><path class="st5" d="M95.53 185.97h8.95v38.11h-8.95z"/><path class="st0" d="M89.53 169.97h8.95v38.11h-8.95z"/></g><g class="st3"><path transform="rotate(-15.754 122.03 192.576)" class="st5" d="M117.58 177.63h8.95v29.93h-8.95z"/><path transform="rotate(-15.754 115.03 182.577)" class="st0" d="M110.58 167.63h8.95v29.93h-8.95z"/></g><g class="st3"><path class="st5" d="M74.19 215.41l-8.61-2.42 8.13-28.58 8.61 2.42z"/><path class="st0" d="M73.19 201.41l-8.61-2.42 8.13-28.58 8.61 2.42z"/></g><circle cx="94.37" cy="141.61" r="10.34" clip-path="url(#SVGID_2_)" fill="#29264f"/><g class="st3"><path class="st5" d="M147.38 192.47l-12.09-28.36a40.93 40.93 0 01-5.71 9.43l9.09 21.32-41.67 15-41.67-15 9.35-21.93a41.093 41.093 0 01-5.6-9.67l-12.45 29.22c-.84 1.97-.83 4.22.03 6.17.85 1.96 2.5 3.5 4.51 4.22l43.2 15.55c.85.31 1.75.46 2.64.46s1.79-.15 2.64-.46l43.2-15.55a7.836 7.836 0 004.51-4.22c.85-1.96.86-4.21.02-6.18z"/><path class="st0" d="M144.38 186.47l-12.09-28.36a40.93 40.93 0 01-5.71 9.43l9.09 21.32-41.67 15-41.67-15 9.35-21.93a41.093 41.093 0 01-5.6-9.67l-12.45 29.22c-.84 1.97-.83 4.22.03 6.17.85 1.96 2.5 3.5 4.51 4.22l43.2 15.55c.85.31 1.75.46 2.64.46s1.79-.15 2.64-.46l43.2-15.55a7.836 7.836 0 004.51-4.22c.85-1.96.86-4.21.02-6.18z"/></g></svg>